<?xml version="1.0" encoding="UTF-8" standalone="no"?>
<svg xmlns="http://www.w3.org/2000/svg" xmlns:xlink="http://www.w3.org/1999/xlink" width="128.774mm" height="88.233mm" viewBox="162.455917 -269.028931 128.773575 88.232544">
    <path transform="matrix(0.087529,0,0,-0.087529,138.380692,-121.377144)" style="stroke:#f78166;stroke-width:0.571239mm;fill:none" d="M1552.068481,1685.387573C1561.710327,1682.525269,1568.264893,1678.41394,1580,1667.868042C1586.324951,1662.184082,1593.050537,1656.175903,1594.945679,1654.516724C1596.84082,1652.857544,1602.498901,1647.675049,1607.519043,1643C1612.539307,1638.324951,1620.6604,1630.900024,1625.56604,1626.5C1630.47168,1622.099976,1639.905273,1613.550049,1646.529419,1607.5C1653.153687,1601.449951,1668.220947,1587.724976,1680.012451,1577C1737.297729,1524.89563,1738.737183,1523.30957,1743.99353,1506.5C1746.800415,1497.523438,1747.048462,1484.17688,1744.578369,1475.030029C1741.378906,1463.181885,1736.707886,1456.578613,1713.5,1431.094849C1709.650024,1426.86731,1703.357056,1419.828979,1699.515747,1415.454224C1695.674438,1411.079346,1688.699463,1403.425293,1684.015747,1398.445068C1679.332153,1393.464722,1671.421509,1384.914795,1666.436646,1379.445068C1661.451904,1373.97522,1652.24939,1363.875,1645.986694,1357C1639.724121,1350.125,1629.803833,1339.324951,1623.941772,1333C1618.079712,1326.675049,1609.551514,1317.224976,1604.990234,1312C1589.721436,1294.509521,1575.554199,1278.594849,1569.398682,1272.018555C1566.042847,1268.43335,1559.572266,1261.224976,1555.019409,1256C1550.466553,1250.775024,1543.537231,1243.11084,1539.620728,1238.968628C1531.927734,1230.831909,1514.681396,1211.471436,1503.610718,1198.544434C1487.541504,1179.78064,1481.577271,1175.126831,1468.698608,1171.302979C1461.499146,1169.165405,1459.037598,1168.918457,1448.5,1169.276123C1436.366577,1169.687866,1435.322266,1169.941406,1424.440308,1175.117554C1416.650269,1178.822998,1415.979126,1179.397339,1372.003906,1220C1363.962158,1227.425049,1350.435669,1239.800049,1341.944946,1247.5C1333.454346,1255.199951,1322.905762,1264.882202,1318.503662,1269.016113C1308.724243,1278.199707,1300.38623,1285.843384,1287.977417,1297C1272.760498,1310.681396,1261.818604,1320.907715,1257.086182,1325.870972C1243.331421,1340.296387,1237.875366,1357.501099,1241.306152,1375.630127C1244.007324,1389.902954,1248.646851,1396.595459,1280,1431.446289C1283.025024,1434.808716,1289.324951,1441.807861,1294,1447C1298.675049,1452.192139,1304.974976,1459.189697,1308,1462.550293C1311.025024,1465.910889,1317.349365,1472.899292,1322.054199,1478.0802C1326.759033,1483.261108,1336.878052,1494.474976,1344.541016,1503C1352.203979,1511.525024,1363.829956,1524.349976,1370.376465,1531.5C1395.946899,1559.427368,1399.947876,1563.834351,1408.575928,1573.576538C1413.484131,1579.11853,1423.574951,1590.318848,1431,1598.465942C1438.425049,1606.613037,1449.675049,1619.030518,1456,1626.060181C1485.651123,1659.014893,1491.178833,1664.969727,1498.241333,1671.565186C1505.881592,1678.700195,1515.111694,1684.128174,1522.584717,1685.880859C1529.269287,1687.448608,1546.072876,1687.16748,1552.068481,1685.387573z"/>
    <path transform="matrix(0.087529,0,0,-0.087529,138.380692,-121.377144)" style="stroke:#f78166;stroke-width:0.571239mm;fill:none" d="M527,1570.946045C558.725159,1568.762451,610.829529,1561.265259,637,1555.118408C656.702698,1550.490601,698.010803,1538.474976,704.651123,1535.440186C706.384277,1534.648071,708.175537,1534,708.631775,1534C709.088074,1534,711.720032,1533.10144,714.480652,1532.003174C717.241333,1530.904907,724.830078,1527.959351,731.344604,1525.45752C737.859131,1522.955688,746.409119,1519.428955,750.344604,1517.620361C754.28009,1515.81189,759.525024,1513.471558,762,1512.419678C776.218933,1506.376953,811.611755,1487.63269,829.188049,1476.836548C847.38031,1465.662109,850.899475,1463.378418,865,1453.5979C902.371277,1427.676025,915.719177,1416.4375,950.544067,1381.572754C974.462341,1357.627075,988.514404,1341.925049,1001.54834,1324.57959C1025.178589,1293.132813,1035.265991,1278.292236,1051.558716,1251.004639C1056.921875,1242.022217,1067.47876,1222.034058,1075.018677,1206.586426C1087.874512,1180.247437,1092.181396,1170.241943,1103.466064,1140.5C1108.275391,1127.824219,1121.992676,1083.999023,1124.593506,1073C1129.441895,1052.496094,1138.348877,1002.713074,1140.472778,984.248169C1142.279419,968.541321,1143.799316,944.994385,1143.005493,945.009827C1142.727417,945.015259,1138.675049,952.289001,1134,961.173706C1124.94873,978.375488,1115.123779,995.910217,1107.912109,1007.733276C1093.231201,1031.801636,1088.096069,1039.908325,1079.776611,1052.150269C1066.025635,1072.384521,1050.459717,1094.6698,1045.167358,1101.699463C1042.600342,1105.109253,1037.588989,1111.859253,1034.031128,1116.699463C1023.826416,1130.58252,999.287842,1160.820679,985.502441,1176.5C980.183228,1182.550049,972.106628,1191.775024,967.554443,1197C950.338257,1216.76062,919.905334,1248,917.870972,1248C916.764526,1248,909.745422,1244.625488,902.272949,1240.500977L888.686646,1233.001953L885.734436,1234.871216C882.220581,1237.095947,795.461731,1322.379517,790.28302,1328.699463L786.694824,1333.078369L789.097412,1338.289185C790.418823,1341.155151,793.254883,1346.650024,795.399719,1350.5C797.544556,1354.349976,800.114807,1359.023926,801.11145,1360.886353L802.923462,1364.272827L799.211731,1366.98999C797.170288,1368.484497,794.599976,1370.72937,793.5,1371.978638C792.400024,1373.227905,788.125,1376.992065,784,1380.343506C779.875,1383.694946,773.078796,1389.376221,768.897339,1392.968506C729.308472,1426.979492,666.54187,1471.607788,613.723145,1503.300537C568.958618,1530.1604,542.425964,1544.542114,499,1565.484741L485.5,1571.995239L498.5,1572.004028C505.649994,1572.008911,518.474976,1571.532837,527,1570.946045z"/>
    <path transform="matrix(0.087529,0,0,-0.087529,138.380692,-121.377144)" style="stroke:#f78166;stroke-width:0.571239mm;fill:none" d="M952.311829,1454.296387C957.915283,1448.959351,973.862488,1433.258789,987.75,1419.406128C1015.356689,1391.868774,1015.105713,1392.239746,1011.402405,1384.435547C1009.930969,1381.334717,995.294128,1366.418579,994.460449,1367.170288C994.259399,1367.351685,982.710999,1378.759521,968.797424,1392.52124C954.88385,1406.282837,939.450012,1421.132813,934.5,1425.52124C919.099426,1439.174316,917.74585,1440.659912,918.850891,1442.696289C920.350708,1445.460205,939.558044,1464,940.921753,1464C941.582764,1464,946.708313,1459.633423,952.311829,1454.296387z"/>
    <path transform="matrix(0.087529,0,0,-0.087529,138.380692,-121.377144)" style="stroke:#f78166;stroke-width:0.571239mm;fill:none" d="M821.106934,1268.032227L856.5,1233.064575L850,1226.283569C841.200378,1217.103516,822.366089,1197.782959,806,1181.147583C798.575012,1173.600342,785.084106,1159.792236,776.020264,1150.462769C766.956421,1141.133179,749.391418,1123.150024,736.986816,1110.5C724.582275,1097.849976,695.773193,1068.378906,672.966553,1045.008545C650.159973,1021.638245,622.487,993.288269,611.471069,982.008545C585.986816,955.914063,562.214966,931.443604,544.456421,913.024353C536.780396,905.062744,523.725708,891.562744,515.445984,883.024353C507.166229,874.485962,485.36911,851.974976,467.007935,833C398.436249,762.135986,357.916046,721,356.684631,721C355.587097,721,279.904083,796.117004,276.972229,800.116272L275.05423,802.732605L296.769531,824.116272C316.006012,843.059021,355.49588,881.664795,357.001678,883C358.502014,884.330322,404.391785,929.348694,436.518494,961.006836C456.328674,980.528076,483.803528,1007.525024,497.57373,1021C511.343933,1034.474976,545.985596,1068.446655,574.555237,1096.492676C603.124878,1124.538574,633.001648,1153.788574,640.94812,1161.492676C672.340088,1191.927002,766.717834,1284.738647,776.954529,1295.242188C781.104553,1299.500366,784.773132,1302.987915,785.106934,1302.992188C785.440735,1302.99646,801.640747,1287.264526,821.106934,1268.032227z"/>
    <path transform="matrix(0.087529,0,0,-0.087529,138.380692,-121.377144)" style="stroke:#f78166;stroke-width:0.571239mm;fill:none" d="M1232.0354,1286.458618C1235.686157,1284.604004,1237.377686,1280.852295,1236.7323,1276.041016C1236.293701,1272.770874,1233.543945,1268.484009,1222.745117,1254.235352C1201.932739,1226.774048,1190.109375,1205.358154,1178.020264,1173.224243C1174.483276,1163.822754,1174.348022,1165.777832,1177.447632,1181.5C1181.484741,1201.976929,1182.525635,1205.585693,1192.445313,1233.5C1201.30896,1258.442383,1215.835571,1284.727295,1222.301514,1287.522583C1225.576904,1288.938599,1227.58606,1288.718994,1232.0354,1286.458618z"/>
    <path transform="matrix(0.087529,0,0,-0.087529,138.380692,-121.377144)" style="stroke:#f78166;stroke-width:0.571239mm;fill:none" d="M1295.598877,1218.094604C1303.207275,1214.639282,1306.901001,1206.328735,1304.439819,1198.203369C1303.305298,1194.457764,1300.136719,1190.343628,1288.879883,1178C1264.291138,1151.037354,1244.85144,1125.642212,1230.319824,1101.5C1215.234985,1076.438477,1201.786865,1049.190063,1191.823853,1023.5C1187.298096,1011.829956,1187.353638,1014.907166,1192.01355,1034C1199.749634,1065.697021,1204.540405,1079.765625,1220.85144,1118.684814C1224.265869,1126.831787,1238.254028,1155.039795,1240.812866,1158.938232C1241.740845,1160.351929,1243.029663,1162.406616,1243.677124,1163.504272C1250.926025,1175.794556,1259.532593,1189.016357,1267.020996,1199.366577C1281.24353,1219.024414,1286.281494,1222.32605,1295.598877,1218.094604z"/>
    <path transform="matrix(0.087529,0,0,-0.087529,138.380692,-121.377144)" style="stroke:#f78166;stroke-width:0.571239mm;fill:none" d="M1374.594238,1153.672607C1376.758911,1151.810669,1377.320068,1150.431641,1377.400024,1146.777954C1377.532593,1140.719971,1375.837402,1139.016357,1365.172119,1134.489746C1346.209351,1126.441406,1328.845215,1114.896606,1311.059204,1098.512085L1305.618286,1093.5L1308.441162,1098.5C1312.499878,1105.688843,1323.894287,1120.744751,1331.130371,1128.480225C1337.07312,1134.83313,1352.963501,1148.321045,1360.651855,1153.538452C1365.406738,1156.765259,1370.937012,1156.818359,1374.594238,1153.672607z"/>
    <path transform="matrix(0.087529,0,0,-0.087529,138.380692,-121.377144)" style="stroke:#f78166;stroke-width:0.571239mm;fill:none" d="M1550,1071.591797C1550,1071.36731,1547.412476,1070.279419,1544.25,1069.174316C1541.087524,1068.069214,1532.650024,1064.830933,1525.5,1061.978027C1518.349976,1059.125122,1509.125,1055.520264,1505,1053.967285C1500.875,1052.414185,1490.525024,1048.393555,1482,1045.032471C1473.474976,1041.671387,1463.349976,1037.771729,1459.5,1036.366577C1455.650024,1034.961304,1451.599976,1033.410645,1450.5,1032.92041C1444.708252,1030.339233,1416.669189,1019.198059,1394,1010.470337C1376.369385,1003.682556,1356.004028,995.799561,1340,989.568237C1332.025024,986.463135,1321.900024,982.526062,1317.5,980.819214C1295.728516,972.373779,1297.332397,973.570313,1267.098389,943.215088C1251.916016,927.971802,1230.325806,906.097534,1219.120117,894.605713C1201.77124,876.813782,1197.992065,873.424866,1193.66748,871.781616C1188.927246,869.980469,1177.8479,867.049255,1155,861.551453C1108.597534,850.385742,1038.717041,832.89386,1029.255981,830.076233L1022.388245,828.030945L1001.944092,805.793823C971.288452,772.449524,958.096558,758.112366,941,739.558655C932.474976,730.307068,920.28241,717.059143,913.905273,710.118774C899.105103,694.011414,882.610046,677.055847,883.631653,679C884.065186,679.825012,899.287903,702.789063,917.459961,730.031311C935.631958,757.27356,952.096863,782.02356,954.048584,785.031311C959.52301,793.467896,991.977539,841.549683,998.071533,850.251831C1001.941772,855.778564,1004.648193,858.557434,1007.5,859.9328C1009.700012,860.993835,1022.75,864.609314,1036.5,867.967224C1050.25,871.325134,1064.650024,874.937622,1068.5,875.994995C1072.349976,877.052368,1079.550049,878.869995,1084.5,880.034119C1113.772461,886.91864,1179.756104,903.76416,1181.690674,904.846802C1182.565552,905.336365,1206.05542,928.449951,1233.890625,956.210327C1264.424194,986.661865,1285.888428,1007.308533,1288,1008.258789C1291.202759,1009.700073,1307.034546,1014.194946,1313.005127,1015.358154C1317.10376,1016.156616,1328.147583,1018.775574,1353.5,1024.961182C1366.699951,1028.181763,1387.175049,1033.117188,1399,1035.928955C1410.824951,1038.740723,1423.875,1041.91626,1428,1042.985718C1432.125,1044.055176,1437.074951,1045.214111,1439,1045.561157C1442.46936,1046.186401,1501.186646,1060.518555,1531,1068.017212C1545.694702,1071.713135,1550,1072.523193,1550,1071.591797z"/>
    <path transform="matrix(0.087529,0,0,-0.087529,138.380692,-121.377144)" style="stroke:#f78166;stroke-width:0.571239mm;fill:none" d="M1528.5,1659.601196C1526.300049,1658.905396,1523.085693,1657.598877,1521.357178,1656.697754C1518.106934,1655.00354,1506.543701,1643.432861,1494.17688,1629.5C1484.18689,1618.245117,1465.55835,1597.607788,1444.416016,1574.373413C1422.858032,1550.682251,1389.265259,1513.536865,1373.123535,1495.541626C1366.730591,1488.414551,1357,1477.659546,1351.5,1471.641602C1346,1465.623657,1337.052368,1455.704956,1331.616455,1449.599976C1326.180542,1443.494995,1317.810425,1434.224976,1313.016357,1429C1268.022217,1379.96228,1266.571655,1377.977539,1266.606079,1365.5C1266.644165,1351.656982,1263.660156,1354.854004,1352.477173,1273.5C1365.086792,1261.949951,1379.925293,1248.276489,1385.451782,1243.114502C1390.978271,1237.952393,1398.650024,1231.025513,1402.5,1227.721436C1406.349976,1224.417358,1413.569214,1217.84082,1418.542847,1213.107056C1435.710083,1196.76709,1439.614746,1194.495483,1450.504639,1194.512573C1464.132446,1194.53418,1467.706055,1197.005127,1489.503418,1221.478271C1493.901489,1226.41626,1499.75,1232.927368,1502.5,1235.947388C1505.25,1238.967529,1507.949951,1241.940552,1508.5,1242.554199C1509.825562,1244.033325,1518.655762,1254.239258,1524.026733,1260.5C1528.437134,1265.641113,1539.275513,1277.754517,1549.02771,1288.442139C1552.067871,1291.773926,1556.53479,1296.75,1558.954224,1299.5C1561.373657,1302.25,1567.477661,1309,1572.518799,1314.5C1577.559814,1320,1584.11792,1327.226685,1587.092163,1330.559204C1599.514893,1344.478271,1621.012695,1368.211792,1630.128296,1378.070923C1635.503784,1383.884888,1641.61145,1390.702026,1643.700928,1393.220093C1645.790405,1395.738159,1654.025024,1404.893433,1662,1413.565186C1704.842163,1460.150146,1714.441528,1470.901367,1716.852661,1475C1719.239502,1479.057129,1719.499878,1480.484131,1719.499268,1489.5C1719.498535,1498.427246,1719.211548,1500.036377,1716.82373,1504.5C1713.230103,1511.217407,1698.146484,1525.869629,1650.970459,1568.469849C1642.46167,1576.153198,1632.800049,1584.978027,1629.5,1588.080566C1626.199951,1591.182983,1621.479858,1595.471558,1619.010742,1597.610718C1616.541626,1599.749756,1614.026611,1601.949951,1613.421875,1602.5C1612.817261,1603.050049,1600.943604,1613.849976,1587.036011,1626.5C1573.128418,1639.150024,1559.251831,1651.375366,1556.199097,1653.66748C1547.517822,1660.185669,1537.281738,1662.37854,1528.5,1659.601196z"/>
    <path transform="matrix(0.087529,0,0,-0.087529,138.380692,-121.377144)" style="stroke:#f78166;stroke-width:0.571239mm;fill:none" d="M1547.727173,1609.599731C1562.919189,1597.333984,1566.076172,1591.138672,1561.70752,1582.164673C1560.145752,1578.956421,1555.953125,1577,1550.639404,1577C1545.619141,1577,1541.847412,1579.567627,1529.899902,1591.118896C1524.895264,1595.957397,1523.132935,1598.39978,1522.609741,1601.222168C1521.192871,1608.865723,1527.744751,1615.47229,1537.150024,1615.884033C1539.017456,1615.965698,1542.141235,1614.109741,1547.727173,1609.599731z"/>
    <path transform="matrix(0.087529,0,0,-0.087529,138.380692,-121.377144)" style="stroke:#f78166;stroke-width:0.571239mm;fill:none" d="M1539.914795,1518.544067C1543.017212,1516.939697,1546,1511.606567,1546,1507.66394C1546,1502.701294,1543.794922,1499.557861,1533.298584,1489.557861L1522.666626,1479.428589L1528.083252,1474.344849C1531.0625,1471.548706,1536.679565,1466.533813,1540.565796,1463.200684L1547.63147,1457.140259L1559.257446,1467.473389C1565.808838,1473.296143,1572.436646,1478.31897,1574.441772,1478.980835C1584.308838,1482.237183,1593.607544,1471.123779,1588.91394,1461.684204C1588.31665,1460.48291,1583.029053,1454.930054,1577.16394,1449.344482L1566.5,1439.188965L1571,1435.38916C1582.208374,1425.924927,1586.130615,1419.640747,1584.610107,1413.582886C1583.548584,1409.353271,1578.926758,1404.998413,1574.804321,1404.343262C1569.177734,1403.449097,1566.606079,1404.52356,1559.255005,1410.839233C1555.539795,1414.03125,1551.262451,1417.450073,1549.75,1418.436523C1546.270752,1420.705688,1546.065796,1420.574097,1531.671631,1406.835327L1520.84314,1396.5L1529.842773,1387.428589C1536.641479,1380.575562,1539.003662,1377.49707,1539.502197,1374.84021C1541.453857,1364.436401,1529.569214,1356.304321,1520.5,1361.838013C1518.849976,1362.844727,1513.922119,1367.044312,1509.549072,1371.170288L1501.598267,1378.671997L1489.35022,1367.86792C1482.61377,1361.925659,1475.934692,1356.770752,1474.50769,1356.412598C1467.898804,1354.753784,1459.012695,1361.57605,1459.003784,1368.315796C1458.997681,1372.844116,1460.540161,1374.937866,1471.694336,1385.543335L1482.257324,1395.58667L1475.878662,1401.669556C1472.370361,1405.015137,1466.591675,1410.271484,1463.036987,1413.350464L1456.573975,1418.948364L1454.047241,1416.724121C1452.657593,1415.500854,1448.230347,1411.441772,1444.208862,1407.704102C1432.303589,1396.638428,1428.304443,1395.094971,1421.013916,1398.751587C1416.66272,1400.93396,1415.033691,1404.107056,1415.014771,1410.43689L1415,1415.373779L1426.25,1426.203491L1437.5,1437.033081L1429.314575,1444.766602C1420.59082,1453.008667,1419,1455.29126,1419,1459.566284C1419,1462.725586,1422.249023,1468.360596,1425.304565,1470.500732C1427.839722,1472.276489,1434.237305,1472.467163,1437.315796,1470.858765C1438.51709,1470.231079,1443.155151,1466.631104,1447.622559,1462.858765C1452.089966,1459.086426,1456.306152,1456,1456.991821,1456C1458.041748,1456,1462.967773,1460.27356,1480.621704,1476.5L1482.797607,1478.5L1473.736816,1487.681519C1464.837646,1496.699097,1464.667725,1496.962036,1464.215942,1502.409546C1463.778442,1507.684448,1463.928345,1508.128418,1467.277954,1511.478027C1470.651245,1514.851196,1473.056763,1515.608398,1478.5,1515.01062C1482.151733,1514.609619,1486.142334,1511.908936,1494.153809,1504.416626C1498.515625,1500.337524,1502.520752,1497,1503.053955,1497C1503.58728,1497,1508.630737,1501.321167,1514.261719,1506.602661C1528.318481,1519.786743,1533.156616,1522.038818,1539.914795,1518.544067z"/>
    <path transform="matrix(0.087529,0,0,-0.087529,138.380692,-121.377144)" style="stroke:#f78166;stroke-width:0.571239mm;fill:none" d="M1341.027466,1378.295898C1342.387329,1377.358643,1343.949951,1376.077881,1344.5,1375.449829C1345.050049,1374.821777,1350.449951,1369.883057,1356.5,1364.474731C1362.550049,1359.066528,1371.324951,1351.001709,1376,1346.552979C1380.675049,1342.104126,1390.33667,1333.297241,1397.470337,1326.982178C1404.604004,1320.666992,1412.479004,1313.420166,1414.970337,1310.878174C1417.46167,1308.336304,1423.775024,1302.490845,1429,1297.888428C1447.479614,1281.610718,1457.954956,1270.884888,1459.077026,1267.091919C1462.194092,1256.555664,1450.831177,1247.416138,1440.960693,1252.520386C1439.343628,1253.356567,1433.145508,1258.644043,1427.18689,1264.270386C1421.228394,1269.896606,1408.961182,1281.245483,1399.926636,1289.489868C1390.891968,1297.734375,1377.39624,1310.109375,1369.936157,1316.989868C1362.476074,1323.870483,1349.679932,1335.574951,1341.500366,1343C1320.605347,1361.967285,1321,1361.521606,1321,1366.155396C1321,1370.878418,1323.001709,1375.06958,1326.614868,1377.911743C1329.959106,1380.542236,1337.477417,1380.742676,1341.027466,1378.295898z"/>
    <path transform="matrix(0.087529,0,0,-0.087529,138.380692,-121.377144)" style="stroke:#f78166;stroke-width:0.571239mm;fill:none" d="M1489.311035,1449.212524L1476.12207,1436.5L1488.353882,1425.5C1495.081421,1419.449951,1501.049316,1414.5,1501.615723,1414.5C1502.182251,1414.5,1508.462891,1420.034424,1515.572876,1426.798706L1528.5,1439.097412L1525.5,1441.662476C1523.849976,1443.073242,1518.149292,1448.226318,1512.831787,1453.11377C1507.514282,1458.001221,1503.014282,1461.983154,1502.831787,1461.962524C1502.649292,1461.941895,1496.564941,1456.204346,1489.311035,1449.212524z"/>
</svg>
